<svg xmlns="http://www.w3.org/2000/svg" width="96" height="96" viewBox="0 0 96 96" fill="none"><path d="M16 56.9H20.5L22.8 50.3H33.2L35.6 56.9H40L30.3 31.1H25.7L16 56.9ZM24.1 46.6L27.9 35.9H28.1L31.9 46.6H24.1ZM56 39.6V32.8C58.2 31.8667 60.45 31.1667 62.75 30.7C65.05 30.2333 67.4667 30 70 30C71.7333 30 73.4333 30.1333 75.1 30.4C76.7667 30.6667 78.4 31 80 31.4V37.8C78.4 37.2 76.7833 36.75 75.15 36.45C73.5167 36.15 71.8 36 70 36C67.4667 36 65.0333 36.3167 62.7 36.95C60.3667 37.5833 58.1333 38.4667 56 39.6ZM56 61.6V54.8C58.2 53.8667 60.45 53.1667 62.75 52.7C65.05 52.2333 67.4667 52 70 52C71.7333 52 73.4333 52.1333 75.1 52.4C76.7667 52.6667 78.4 53 80 53.4V59.8C78.4 59.2 76.7833 58.75 75.15 58.45C73.5167 58.15 71.8 58 70 58C67.4667 58 65.0333 58.3 62.7 58.9C60.3667 59.5 58.1333 60.4 56 61.6ZM56 50.6V43.8C58.2 42.8667 60.45 42.1667 62.75 41.7C65.05 41.2333 67.4667 41 70 41C71.7333 41 73.4333 41.1333 75.1 41.4C76.7667 41.6667 78.4 42 80 42.4V48.8C78.4 48.2 76.7833 47.75 75.15 47.45C73.5167 47.15 71.8 47 70 47C67.4667 47 65.0333 47.3167 62.7 47.95C60.3667 48.5833 58.1333 49.4667 56 50.6ZM26 64C29.1333 64 32.1833 64.35 35.15 65.05C38.1167 65.75 41.0667 66.8 44 68.2V28.8C41.2667 27.2 38.3667 26 35.3 25.2C32.2333 24.4 29.1333 24 26 24C23.6 24 21.2167 24.2333 18.85 24.7C16.4833 25.1667 14.2 25.8667 12 26.8V66.4C14.3333 65.6 16.65 65 18.95 64.6C21.25 64.2 23.6 64 26 64ZM52 68.2C54.9333 66.8 57.8833 65.75 60.85 65.05C63.8167 64.35 66.8667 64 70 64C72.4 64 74.75 64.2 77.05 64.6C79.35 65 81.6667 65.6 84 66.4V26.8C81.8 25.8667 79.5167 25.1667 77.15 24.7C74.7833 24.2333 72.4 24 70 24C66.8667 24 63.7667 24.4 60.7 25.2C57.6333 26 54.7333 27.2 52 28.8V68.2ZM48 80C44.8 77.4667 41.3333 75.5 37.6 74.1C33.8667 72.7 30 72 26 72C23.2 72 20.45 72.3667 17.75 73.1C15.05 73.8333 12.4667 74.8667 10 76.2C8.6 76.9333 7.25 76.9 5.95 76.1C4.65 75.3 4 74.1333 4 72.6V24.4C4 23.6667 4.18333 22.9667 4.55 22.3C4.91667 21.6333 5.46667 21.1333 6.2 20.8C9.26667 19.2 12.4667 18 15.8 17.2C19.1333 16.4 22.5333 16 26 16C29.8667 16 33.65 16.5 37.35 17.5C41.05 18.5 44.6 20 48 22C51.4 20 54.95 18.5 58.65 17.5C62.35 16.5 66.1333 16 70 16C73.4667 16 76.8667 16.4 80.2 17.2C83.5333 18 86.7333 19.2 89.8 20.8C90.5333 21.1333 91.0833 21.6333 91.45 22.3C91.8167 22.9667 92 23.6667 92 24.4V72.6C92 74.1333 91.35 75.3 90.05 76.1C88.75 76.9 87.4 76.9333 86 76.2C83.5333 74.8667 80.95 73.8333 78.25 73.1C75.55 72.3667 72.8 72 70 72C66 72 62.1333 72.7 58.4 74.1C54.6667 75.5 51.2 77.4667 48 80Z" fill="#FFEB69"></path></svg>