<svg xmlns="http://www.w3.org/2000/svg" width="96" height="96" viewBox="0 0 96 96" fill="none"><path d="M19.9998 84C16.5998 84 14.1831 82.4833 12.7498 79.45C11.3164 76.4167 11.6664 73.6 13.7998 71L35.9998 44V20H31.9998C30.8664 20 29.9164 19.6167 29.1498 18.85C28.3831 18.0833 27.9998 17.1333 27.9998 16C27.9998 14.8667 28.3831 13.9167 29.1498 13.15C29.9164 12.3833 30.8664 12 31.9998 12H63.9998C65.1331 12 66.0831 12.3833 66.8498 13.15C67.6164 13.9167 67.9998 14.8667 67.9998 16C67.9998 17.1333 67.6164 18.0833 66.8498 18.85C66.0831 19.6167 65.1331 20 63.9998 20H59.9998V44L82.1998 71C84.3331 73.6 84.6831 76.4167 83.2498 79.45C81.8164 82.4833 79.3998 84 75.9998 84H19.9998ZM19.9998 76H75.9998L51.9998 46.8V20H43.9998V46.8L19.9998 76Z" fill="#FFEB69"></path></svg>